
      <svg width="400" height="520" viewBox="0 0 120 156" fill="none" xmlns="http://www.w3.org/2000/svg">
        <defs>
          <linearGradient id="beeGradient" x1="0%" y1="0%" x2="100%" y2="100%">
            <stop offset="0%" style="stop-color:#F59E0B;stop-opacity:1" />
            <stop offset="100%" style="stop-color:#D97706;stop-opacity:1" />
          </linearGradient>
          <linearGradient id="orangeGradient" x1="0%" y1="0%" x2="100%" y2="100%">
            <stop offset="0%" style="stop-color:#FB923C;stop-opacity:1" />
            <stop offset="100%" style="stop-color:#F97316;stop-opacity:1" />
          </linearGradient>
          <linearGradient id="darkGradient" x1="0%" y1="0%" x2="100%" y2="100%">
            <stop offset="0%" style="stop-color:#334155;stop-opacity:1" />
            <stop offset="100%" style="stop-color:#1E293B;stop-opacity:1" />
          </linearGradient>
          <linearGradient id="textGradient" x1="0%" y1="0%" x2="100%" y2="100%">
            <stop offset="0%" style="stop-color:#F59E0B;stop-opacity:1" />
            <stop offset="100%" style="stop-color:#D97706;stop-opacity:1" />
          </linearGradient>
          <radialGradient id="glowGradient" cx="50%" cy="50%" r="50%">
            <stop offset="0%" style="stop-color:#FCD34D;stop-opacity:0.3" />
            <stop offset="100%" style="stop-color:#FCD34D;stop-opacity:0" />
          </radialGradient>
        </defs>
        
        <!-- Logo Icon -->
        <g>
          <circle cx="60" cy="60" r="50" fill="url(#glowGradient)" />
          
          <g opacity="0.15">
            <path d="M60 25 L70 31 L70 43 L60 49 L50 43 L50 31 Z" fill="#F59E0B" />
            <path d="M40 37 L50 43 L50 55 L40 61 L30 55 L30 43 Z" fill="#F59E0B" />
            <path d="M80 37 L90 43 L90 55 L80 61 L70 55 L70 43 Z" fill="#F59E0B" />
            <path d="M40 67 L50 73 L50 85 L40 91 L30 85 L30 73 Z" fill="#F59E0B" />
            <path d="M80 67 L90 73 L90 85 L80 91 L70 85 L70 73 Z" fill="#F59E0B" />
          </g>
          
          <path d="M60 30 C48 30 38 40 38 52 C38 58 41 66 60 88 C79 66 82 58 82 52 C82 40 72 30 60 30 Z" fill="url(#beeGradient)" stroke="#B45309" stroke-width="2" />
          
          <path d="M60 45 L68 50 L68 60 L60 65 L52 60 L52 50 Z" fill="white" stroke="#FCD34D" stroke-width="1.5" />
          
          <g>
            <ellipse cx="60" cy="54" rx="6" ry="8" fill="url(#darkGradient)" />
            <rect x="54" y="51" width="12" height="1.5" fill="#F59E0B" rx="0.5" />
            <rect x="54" y="54.5" width="12" height="1.5" fill="#F59E0B" rx="0.5" />
            <rect x="54" y="58" width="12" height="1.5" fill="#F59E0B" rx="0.5" />
            <circle cx="60" cy="48" r="3" fill="url(#darkGradient)" />
            <line x1="58" y1="47" x2="57" y2="44" stroke="#1E293B" stroke-width="1" stroke-linecap="round" />
            <line x1="62" y1="47" x2="63" y2="44" stroke="#1E293B" stroke-width="1" stroke-linecap="round" />
            <circle cx="57" cy="44" r="1" fill="#F59E0B" />
            <circle cx="63" cy="44" r="1" fill="#F59E0B" />
            <ellipse cx="56" cy="52" rx="4" ry="5" fill="white" opacity="0.7" transform="rotate(-25 56 52)" />
            <ellipse cx="64" cy="52" rx="4" ry="5" fill="white" opacity="0.7" transform="rotate(25 64 52)" />
            <ellipse cx="56" cy="52" rx="4" ry="5" fill="none" stroke="#D97706" stroke-width="0.5" opacity="0.5" transform="rotate(-25 56 52)" />
            <ellipse cx="64" cy="52" rx="4" ry="5" fill="none" stroke="#D97706" stroke-width="0.5" opacity="0.5" transform="rotate(25 64 52)" />
          </g>
          
          <g opacity="0.6">
            <line x1="60" y1="20" x2="60" y2="26" stroke="url(#orangeGradient)" stroke-width="2" stroke-linecap="round" />
            <line x1="78" y1="28" x2="74" y2="32" stroke="url(#orangeGradient)" stroke-width="2" stroke-linecap="round" />
            <line x1="42" y1="28" x2="46" y2="32" stroke="url(#orangeGradient)" stroke-width="2" stroke-linecap="round" />
            <line x1="86" y1="52" x2="80" y2="52" stroke="url(#orangeGradient)" stroke-width="2" stroke-linecap="round" />
            <line x1="34" y1="52" x2="40" y2="52" stroke="url(#orangeGradient)" stroke-width="2" stroke-linecap="round" />
          </g>
          
          <g opacity="0.5">
            <circle cx="45" cy="95" r="2.5" fill="#F59E0B" />
            <circle cx="60" cy="98" r="2.5" fill="#F59E0B" />
            <circle cx="75" cy="95" r="2.5" fill="#F59E0B" />
            <line x1="45" y1="95" x2="60" y2="98" stroke="#F59E0B" stroke-width="1" stroke-dasharray="2,2" />
            <line x1="60" y1="98" x2="75" y2="95" stroke="#F59E0B" stroke-width="1" stroke-dasharray="2,2" />
          </g>
        </g>
        
        <!-- Text -->
        <g>
          <text x="60" y="130" text-anchor="middle" font-family="Arial, sans-serif" font-size="18" font-weight="bold" fill="url(#textGradient)" letter-spacing="0.5">BeeAware</text>
          <text x="60" y="145" text-anchor="middle" font-family="Arial, sans-serif" font-size="6.3" font-weight="500" fill="#475569" letter-spacing="0.8">Local awareness, together</text>
        </g>
      </svg>
    