<svg width="64" height="66" viewBox="0 0 64 66" fill="none" xmlns="http://www.w3.org/2000/svg">
<path d="M32 60C42.2083 60 50.4837 48.6893 50.4837 34.7369C50.4837 20.7844 42.2083 9.47369 32 9.47369C21.7918 9.47369 13.5163 20.7844 13.5163 34.7369C13.5163 48.6893 21.7918 60 32 60Z" fill="url(#paint0_linear_24_56)"/>
<path d="M48.9434 25.2632H15.0566C14.206 25.2632 13.5163 25.9702 13.5163 26.8422V28.4211C13.5163 29.2932 14.206 30.0001 15.0566 30.0001H48.9434C49.7941 30.0001 50.4837 29.2932 50.4837 28.4211V26.8422C50.4837 25.9702 49.7941 25.2632 48.9434 25.2632Z" fill="#F59E0B"/>
<path d="M48.9434 36.3159H15.0566C14.206 36.3159 13.5163 37.0228 13.5163 37.8948V39.4738C13.5163 40.3458 14.206 41.0527 15.0566 41.0527H48.9434C49.7941 41.0527 50.4837 40.3458 50.4837 39.4738V37.8948C50.4837 37.0228 49.7941 36.3159 48.9434 36.3159Z" fill="#F59E0B"/>
<path d="M48.9434 47.3685H15.0566C14.206 47.3685 13.5163 48.0754 13.5163 48.9475V50.5264C13.5163 51.3985 14.206 52.1054 15.0566 52.1054H48.9434C49.7941 52.1054 50.4837 51.3985 50.4837 50.5264V48.9475C50.4837 48.0754 49.7941 47.3685 48.9434 47.3685Z" fill="#F59E0B"/>
<path d="M32 25.2632C37.1041 25.2632 41.2418 21.0217 41.2418 15.7895C41.2418 10.5574 37.1041 6.31586 32 6.31586C26.8959 6.31586 22.7581 10.5574 22.7581 15.7895C22.7581 21.0217 26.8959 25.2632 32 25.2632Z" fill="url(#paint1_linear_24_56)"/>
<path d="M25.8388 12.6316L22.7581 3.15796" stroke="#1E293B" stroke-width="3.33333" stroke-linecap="round"/>
<path d="M38.1612 12.6316L41.2418 3.15796" stroke="#1E293B" stroke-width="3.33333" stroke-linecap="round"/>
<path d="M22.7582 6.31585C24.4595 6.31585 25.8388 4.90201 25.8388 3.15796C25.8388 1.4139 24.4595 6.10352e-05 22.7582 6.10352e-05C21.0568 6.10352e-05 19.6776 1.4139 19.6776 3.15796C19.6776 4.90201 21.0568 6.31585 22.7582 6.31585Z" fill="#F59E0B"/>
<path d="M41.2418 6.31585C42.9432 6.31585 44.3224 4.90201 44.3224 3.15796C44.3224 1.4139 42.9432 6.10352e-05 41.2418 6.10352e-05C39.5405 6.10352e-05 38.1612 1.4139 38.1612 3.15796C38.1612 4.90201 39.5405 6.31585 41.2418 6.31585Z" fill="#F59E0B"/>
<path opacity="0.7" d="M26.1872 42.7312C32.355 39.7829 34.4406 30.986 30.8455 23.0827C27.2503 15.1795 19.3358 11.1627 13.1679 14.1109C7.00005 17.0592 4.91445 25.8561 8.50962 33.7594C12.1048 41.6627 20.0193 45.6795 26.1872 42.7312Z" fill="white"/>
<path opacity="0.7" d="M37.8129 42.7312C43.9807 45.6795 51.8952 41.6627 55.4904 33.7594C59.0856 25.8562 57 17.0593 50.8321 14.111C44.6642 11.1627 36.7497 15.1795 33.1545 23.0828C29.5594 30.986 31.645 39.783 37.8129 42.7312Z" fill="white"/>
<path opacity="0.5" d="M26.1872 42.7312C32.355 39.7829 34.4406 30.986 30.8455 23.0827C27.2503 15.1795 19.3358 11.1627 13.1679 14.1109C7.00005 17.0592 4.91445 25.8561 8.50962 33.7594C12.1048 41.6627 20.0193 45.6795 26.1872 42.7312Z" stroke="#D97706" stroke-width="1.66667"/>
<path opacity="0.5" d="M37.8129 42.7312C43.9807 45.6795 51.8952 41.6627 55.4904 33.7594C59.0856 25.8562 57 17.0593 50.8321 14.111C44.6642 11.1627 36.7497 15.1795 33.1545 23.0828C29.5594 30.986 31.645 39.783 37.8129 42.7312Z" stroke="#D97706" stroke-width="1.66667"/>
<path d="M32 2L59.7128 18V50L32 66L4.28719 50V18L32 2Z" fill="#F97316" fill-opacity="0.15"/>
<defs>
<linearGradient id="paint0_linear_24_56" x1="13.5163" y1="9.47369" x2="4829.15" y2="3532.81" gradientUnits="userSpaceOnUse">
<stop stop-color="#334155"/>
<stop offset="1" stop-color="#1E293B"/>
</linearGradient>
<linearGradient id="paint1_linear_24_56" x1="22.7581" y1="6.31586" x2="1916.91" y2="1854.12" gradientUnits="userSpaceOnUse">
<stop stop-color="#334155"/>
<stop offset="1" stop-color="#1E293B"/>
</linearGradient>
</defs>
</svg>
